<svg width="64" height="43" viewBox="0 0 64 43" fill="none" xmlns="http://www.w3.org/2000/svg">
<path d="M0 5.375C0 2.40647 2.38781 0 5.33333 0H58.6667C61.6122 0 64 2.40647 64 5.375V37.625C64 40.5935 61.6122 43 58.6667 43H5.33333C2.38781 43 0 40.5935 0 37.625V5.375Z" fill="#CCEAFF"/>
<path d="M53.3333 31.3754C53.3333 35.0689 50.363 38.0639 46.697 38.0639H10.6667V11.626C10.6667 7.93152 13.6371 4.93652 17.3036 4.93652H53.3331L53.333 31.3754L53.3333 31.3754Z" fill="white"/>
<path d="M41.5872 22.0802C42.6163 22.1027 43.6512 22.0344 44.6762 22.1157C45.7143 22.3109 45.9645 23.8946 45.0422 24.4133C44.413 24.755 43.6655 24.5405 42.9833 24.6008H41.5872V22.0802ZM45.2713 19.2272C45.4999 20.0405 44.7219 20.7708 43.9447 20.6588H41.5872C41.6037 19.8918 41.5548 19.0593 41.6111 18.3327C42.5555 18.3595 43.5087 18.278 44.4476 18.3753C44.851 18.4774 45.1887 18.8117 45.2713 19.2272ZM50.9449 7.16558C50.9888 8.71886 50.9512 10.3542 50.9638 11.939C50.9609 18.3822 50.97 24.8252 50.9588 31.2687C50.9174 33.6834 48.794 35.7816 46.4146 35.8298C44.0328 35.8396 41.6507 35.8313 39.2687 35.834V26.0933C41.864 26.0798 44.4607 26.1207 47.055 26.0729C48.2585 25.9967 49.5768 25.1964 49.6328 23.8617C49.7745 22.5211 48.5205 21.5939 47.3298 21.4475C46.8721 21.4355 46.8855 21.313 47.3298 21.2596C48.4654 21.0122 49.3572 19.8277 49.023 18.6414C48.7383 17.3937 47.37 16.9108 46.2318 16.9132C43.9111 16.8973 41.59 16.911 39.2692 16.9064C39.2842 15.0879 39.2379 13.2675 39.2941 11.4503C39.478 9.0792 41.6549 7.12378 44.0009 7.1662C46.3158 7.16585 48.6305 7.16585 50.9449 7.16576V7.16558Z" fill="url(#paint0_linear_269_6291)"/>
<path d="M13.0432 11.6959C13.1025 9.28497 15.235 7.20397 17.6113 7.16873C19.9843 7.16137 22.3576 7.16767 24.7305 7.16554C24.724 15.2319 24.7433 23.2992 24.7207 31.3651C24.6293 33.7467 22.52 35.7881 20.1696 35.8302C17.7921 35.8389 15.4145 35.8315 13.037 35.8339V25.7648C15.3463 26.3146 17.768 26.5486 20.1239 26.1839C21.5322 25.9556 23.073 25.2586 23.5498 23.7862C23.9006 22.5267 23.7031 21.2011 23.7553 19.9084V16.9063H19.6782C19.6598 18.8919 19.7157 20.8808 19.6487 22.8639C19.5388 24.0829 18.341 24.8573 17.2003 24.816C15.7856 24.8311 12.9822 23.7827 12.9822 23.7827C12.9751 20.0627 13.0232 15.4039 13.0432 11.6962V11.6959Z" fill="url(#paint1_linear_269_6291)"/>
<path d="M26.251 18.1177C26.0364 18.1636 26.2079 17.3809 26.153 17.0841C26.1676 15.2069 26.1225 13.3277 26.178 11.4519C26.3613 9.07076 28.5549 7.11046 30.9104 7.1662H37.8471C37.8406 15.2326 37.8599 23.2998 37.8373 31.3658C37.7458 33.7474 35.6364 35.7886 33.2859 35.8309C30.9084 35.8399 28.5306 35.8323 26.1529 35.8346V24.8025C27.7768 26.1453 29.9838 26.3543 32.0068 26.3579C33.5319 26.3574 35.0481 26.1204 36.5292 25.7659V23.7449C34.8601 24.5832 32.898 25.1157 31.0478 24.6341C29.7571 24.3103 28.8202 23.0532 28.841 21.7108C28.6915 20.3148 29.5035 18.8409 30.8647 18.4259C32.5547 17.8927 34.3967 18.3005 35.9809 18.9938C36.3203 19.1729 36.6648 19.395 36.5291 18.8233V17.2347C33.8796 16.5994 31.0599 16.3656 28.3981 17.0567C27.6276 17.2758 26.8769 17.608 26.251 18.1179V18.1177Z" fill="url(#paint2_linear_269_6291)"/>
<defs>
<linearGradient id="paint0_linear_269_6291" x1="39.1888" y1="20.8868" x2="50.8901" y2="20.8868" gradientUnits="userSpaceOnUse">
<stop stop-color="#007B40"/>
<stop offset="1" stop-color="#55B330"/>
</linearGradient>
<linearGradient id="paint1_linear_269_6291" x1="12.7882" y1="21.7742" x2="24.5388" y2="21.7742" gradientUnits="userSpaceOnUse">
<stop stop-color="#1D2970"/>
<stop offset="1" stop-color="#006DBA"/>
</linearGradient>
<linearGradient id="paint2_linear_269_6291" x1="26.1358" y1="21.1652" x2="37.8449" y2="21.1652" gradientUnits="userSpaceOnUse">
<stop stop-color="#6E2B2F"/>
<stop offset="1" stop-color="#E30138"/>
</linearGradient>
</defs>
</svg>
