<svg width="64" height="43" viewBox="0 0 64 43" fill="none" xmlns="http://www.w3.org/2000/svg">
<path d="M0 5.375C0 2.40647 2.38781 0 5.33333 0H58.6667C61.6122 0 64 2.40647 64 5.375V37.625C64 40.5935 61.6122 43 58.6667 43H5.33333C2.38781 43 0 40.5935 0 37.625V5.375Z" fill="#E4E5E7"/>
<path d="M30.5564 22.9447V29.1579H28.587V13.814H33.8102C34.4337 13.801 35.0536 13.9117 35.6341 14.1396C36.2146 14.3676 36.7443 14.7084 37.1925 15.1424C37.6453 15.5499 38.0056 16.0498 38.2493 16.6083C38.493 17.1669 38.6144 17.7712 38.6054 18.3806C38.6183 18.9932 38.4988 19.6015 38.2549 20.1636C38.0111 20.7256 37.6487 21.2283 37.1925 21.6371C36.2792 22.5088 35.1517 22.9443 33.8102 22.9434H30.5564V22.9447ZM30.5564 15.7031V21.0593H33.8592C34.2213 21.07 34.5816 21.005 34.9171 20.8684C35.2527 20.7318 35.556 20.5266 35.8078 20.266C36.0583 20.0222 36.2574 19.7307 36.3933 19.4087C36.5293 19.0866 36.5993 18.7406 36.5993 18.391C36.5993 18.0414 36.5293 17.6953 36.3933 17.3732C36.2574 17.0512 36.0583 16.7597 35.8078 16.516C35.5592 16.2498 35.2569 16.0396 34.9209 15.8993C34.585 15.7589 34.2231 15.6916 33.8592 15.7019H30.5564V15.7031Z" fill="#5F6368"/>
<path d="M43.1436 18.3169C44.5993 18.3169 45.7483 18.7062 46.5907 19.4849C47.4332 20.2635 47.8539 21.3311 47.8531 22.6876V29.1579H45.9693V27.701H45.8837C45.0682 28.9008 43.9836 29.5006 42.6299 29.5006C41.4743 29.5006 40.5075 29.1579 39.7295 28.4723C39.3562 28.1576 39.0577 27.7635 38.8558 27.3187C38.6539 26.874 38.5537 26.3897 38.5625 25.9013C38.5625 24.8149 38.9727 23.951 39.7931 23.3095C40.6135 22.668 41.7087 22.3464 43.0788 22.3448C44.2482 22.3448 45.2113 22.559 45.9681 22.9875V22.537C45.9703 22.204 45.8985 21.8747 45.7578 21.5729C45.6171 21.2712 45.4111 21.0046 45.1546 20.7924C44.6338 20.3221 43.9551 20.0655 43.2537 20.0737C42.1536 20.0737 41.2831 20.5381 40.6421 21.467L38.9075 20.3737C39.8616 19.0025 41.2737 18.3169 43.1436 18.3169ZM40.5956 25.9441C40.5943 26.195 40.6529 26.4425 40.7665 26.6661C40.8801 26.8897 41.0455 27.0829 41.2488 27.2296C41.6844 27.5725 42.225 27.7542 42.7791 27.7438C43.6102 27.7424 44.4068 27.4114 44.9944 26.8232C45.6468 26.2086 45.973 25.4875 45.973 24.6599C45.3589 24.1702 44.5027 23.9253 43.4042 23.9253C42.6042 23.9253 41.9371 24.1183 41.4029 24.5044C40.8635 24.8961 40.5956 25.3724 40.5956 25.9441Z" fill="#5F6368"/>
<path d="M58.6667 18.6597L52.0905 33.7856H50.0574L52.4978 28.493L48.1736 18.6597H50.3143L53.4397 26.2012H53.4825L56.5223 18.6597H58.6667Z" fill="#5F6368"/>
<path d="M22.5979 21.6053C22.5987 21.0046 22.5479 20.405 22.4462 19.813H14.1404V23.2079H18.8976C18.8003 23.7501 18.5942 24.267 18.2919 24.7274C17.9896 25.1877 17.5973 25.5821 17.1386 25.8866V28.0903H19.9777C21.6401 26.5563 22.5979 24.2877 22.5979 21.6053Z" fill="#4285F4"/>
<path d="M14.1404 30.2195C16.5172 30.2195 18.5184 29.4384 19.9778 28.0917L17.1386 25.888C16.3484 26.4243 15.3306 26.7303 14.1404 26.7303C11.8431 26.7303 9.89328 25.1804 9.19603 23.0918H6.27124V25.3628C7.00429 26.8227 8.12835 28.05 9.51792 28.9076C10.9075 29.7653 12.5079 30.2194 14.1404 30.2195Z" fill="#34A853"/>
<path d="M9.19595 23.0919C8.82734 21.9975 8.82734 20.8123 9.19595 19.7178V17.4468H6.27116C5.65449 18.6749 5.33333 20.0304 5.33333 21.4049C5.33333 22.7794 5.65449 24.1348 6.27116 25.3629L9.19595 23.0919Z" fill="#FBBC04"/>
<path d="M14.1404 16.0791C15.3964 16.0586 16.6101 16.5335 17.519 17.4013L20.0328 14.8855C18.4388 13.387 16.3271 12.5644 14.1404 12.5899C12.5079 12.59 10.9075 13.0442 9.51792 13.9018C8.12835 14.7594 7.00429 15.9867 6.27124 17.4466L9.19603 19.7177C9.89328 17.6291 11.8431 16.0791 14.1404 16.0791Z" fill="#EA4335"/>
</svg>
