<svg width="65" height="43" viewBox="0 0 65 43" fill="none" xmlns="http://www.w3.org/2000/svg">
<path d="M0 5.375C0 2.40647 2.42512 0 5.41667 0H59.5833C62.5749 0 65 2.40647 65 5.375V37.625C65 40.5935 62.5749 43 59.5833 43H5.41667C2.42512 43 0 40.5935 0 37.625V5.375Z" fill="#CCECFF"/>
<path d="M52.9706 21.6402C52.9706 12.0208 44.8794 5.3721 36.0138 5.375H28.3846C19.4134 5.37181 12.0294 12.0228 12.0294 21.6402C12.0294 30.4386 19.4136 37.6674 28.3846 37.6248H36.0138C44.8786 37.6671 52.9706 30.4363 52.9706 21.6402Z" fill="#0079BE"/>
<path d="M28.4324 6.73779C20.2349 6.74031 13.5925 13.3472 13.5896 21.5013C13.5916 29.654 20.2344 36.26 28.4324 36.2629C36.6318 36.2604 43.2763 29.6541 43.2772 21.5013C43.2762 13.347 36.632 6.7407 28.4324 6.73779Z" fill="white"/>
<path d="M19.051 21.461C19.0588 17.4765 21.5616 14.0787 25.0907 12.7285V30.1916C21.5616 28.8422 19.0587 25.4461 19.051 21.4611V21.461ZM31.8247 30.196V12.729C35.3553 14.076 37.862 17.4757 37.8683 21.4621C37.8619 25.4497 35.3553 28.8469 31.8247 30.1964V30.196Z" fill="#0079BE"/>
</svg>
