<svg width="65" height="43" viewBox="0 0 65 43" fill="none" xmlns="http://www.w3.org/2000/svg">
<path d="M0 5.375C0 2.40647 2.42512 0 5.41667 0H59.5833C62.5749 0 65 2.40647 65 5.375V37.625C65 40.5935 62.5749 43 59.5833 43H5.41667C2.42512 43 0 40.5935 0 37.625V5.375Z" fill="#CCDEFF"/>
<path d="M14.5855 15.4765C13.9065 15.0134 13.0206 14.7812 11.9276 14.7812H7.69626C7.3612 14.7812 7.17608 14.9475 7.14092 15.2798L5.42205 25.9866C5.40419 26.0917 5.4307 26.1879 5.50135 26.2753C5.5716 26.3629 5.65995 26.4065 5.76576 26.4065H7.77564C8.12816 26.4065 8.32192 26.2406 8.35748 25.908L8.83344 23.0214C8.85082 22.8815 8.91282 22.7678 9.01863 22.6802C9.12436 22.5928 9.25661 22.5356 9.41529 22.5094C9.57397 22.4834 9.72359 22.4703 9.86489 22.4703C10.0058 22.4703 10.1732 22.4792 10.3674 22.4966C10.5612 22.514 10.6847 22.5226 10.7377 22.5226C12.2538 22.5226 13.4438 22.0987 14.3079 21.2498C15.1715 20.4015 15.6038 19.2251 15.6038 17.7202C15.6038 16.688 15.2641 15.9402 14.5855 15.4763V15.4765ZM12.4038 18.6915C12.3154 19.3039 12.0865 19.7061 11.7162 19.8986C11.3459 20.0913 10.817 20.1873 10.1295 20.1873L9.25677 20.2134L9.70645 17.4054C9.74154 17.2131 9.85608 17.1169 10.0502 17.1169H10.5528C11.2577 17.1169 11.7693 17.2177 12.0866 17.4186C12.4038 17.6199 12.5096 18.0443 12.4038 18.6915Z" fill="#003087"/>
<path d="M59.2392 14.7812H57.2824C57.0879 14.7812 56.9735 14.8775 56.9385 15.0701L55.2195 25.987L55.193 26.0395C55.193 26.1274 55.2282 26.2101 55.299 26.2889C55.3691 26.3675 55.4576 26.4069 55.5633 26.4069H57.309C57.6434 26.4069 57.8286 26.241 57.8644 25.9084L59.5833 15.1751V15.149C59.5832 14.904 59.4682 14.7816 59.2392 14.7816V14.7812Z" fill="#009CDE"/>
<path d="M35.5968 19.0065C35.5968 18.9193 35.5614 18.836 35.4913 18.7575C35.4206 18.6788 35.3412 18.6392 35.2532 18.6392H33.2169C33.0226 18.6392 32.8639 18.7271 32.7407 18.9015L29.9375 22.9955L28.7739 19.0592C28.6853 18.7795 28.4916 18.6392 28.1921 18.6392H26.2084C26.12 18.6392 26.0407 18.6786 25.9706 18.7575C25.8999 18.836 25.8648 18.9194 25.8648 19.0065C25.8648 19.0417 26.0367 19.5577 26.3805 20.5549C26.7242 21.5524 27.0944 22.6284 27.4911 23.7831C27.8879 24.9376 28.0949 25.5503 28.1126 25.6197C26.6668 27.5794 25.9442 28.6291 25.9442 28.7688C25.9442 28.9965 26.0586 29.11 26.288 29.11H28.3243C28.5181 29.11 28.6767 29.0228 28.8004 28.8477L35.5443 19.1901C35.5793 19.1555 35.5968 19.0945 35.5968 19.0065V19.0065Z" fill="#003087"/>
<path d="M54.5588 18.6393H52.5488C52.3017 18.6393 52.1524 18.928 52.0995 19.5055C51.6405 18.8059 50.8036 18.4556 49.5869 18.4556C48.3175 18.4556 47.2375 18.928 46.3474 19.8728C45.4569 20.8175 45.0119 21.9288 45.0119 23.2058C45.0119 24.2382 45.316 25.0604 45.9241 25.6725C46.5324 26.2852 47.3477 26.591 48.3706 26.591C48.8818 26.591 49.4019 26.4859 49.9308 26.2761C50.4597 26.0662 50.8736 25.7864 51.1739 25.4363C51.1739 25.4539 51.1559 25.5324 51.1211 25.6723C51.0854 25.8125 51.068 25.9178 51.068 25.9872C51.068 26.2674 51.1824 26.407 51.4119 26.407H53.2368C53.5714 26.407 53.7656 26.2411 53.8183 25.9085L54.9027 19.0591C54.9201 18.954 54.8938 18.858 54.8233 18.7704C54.7525 18.6831 54.6645 18.6393 54.5588 18.6393ZM51.1077 23.8093C50.6581 24.2467 50.1158 24.4653 49.4812 24.4653C48.9697 24.4653 48.5557 24.3256 48.2382 24.0455C47.9207 23.7662 47.762 23.3812 47.762 22.8908C47.762 22.2439 47.9825 21.6967 48.4234 21.2507C48.8636 20.8045 49.4106 20.5815 50.063 20.5815C50.5562 20.5815 50.9662 20.7258 51.2927 21.0144C51.6185 21.3031 51.7821 21.7011 51.7821 22.2087C51.782 22.8384 51.5572 23.3721 51.1077 23.8093Z" fill="#009CDE"/>
<path d="M24.5159 18.6393H22.5059C22.2587 18.6393 22.1092 18.928 22.0562 19.5055C21.5802 18.8059 20.7427 18.4556 19.5438 18.4556C18.2744 18.4556 17.1944 18.928 16.3042 19.8728C15.4137 20.8175 14.9687 21.9288 14.9687 23.2058C14.9687 24.2382 15.2729 25.0604 15.8811 25.6725C16.4894 26.2852 17.3046 26.591 18.3274 26.591C18.8208 26.591 19.3324 26.4859 19.8612 26.2761C20.3901 26.0662 20.8132 25.7864 21.1306 25.4363C21.0599 25.6461 21.0248 25.8299 21.0248 25.9872C21.0248 26.2674 21.1393 26.407 21.3686 26.407H23.1933C23.5281 26.407 23.7222 26.2411 23.7752 25.9085L24.8594 19.0591C24.8768 18.954 24.8504 18.858 24.7801 18.7704C24.7095 18.6831 24.6215 18.6393 24.5159 18.6393ZM21.0646 23.8223C20.615 24.2514 20.0637 24.4653 19.4118 24.4653C18.9002 24.4653 18.4903 24.3256 18.182 24.0455C17.8733 23.7662 17.7192 23.3812 17.7192 22.8908C17.7192 22.2439 17.9394 21.6967 18.3804 21.2507C18.8208 20.8045 19.3674 20.5815 20.02 20.5815C20.5134 20.5815 20.9233 20.7258 21.2498 21.0144C21.5758 21.3031 21.739 21.7011 21.739 22.2087C21.739 22.856 21.5142 23.3941 21.0646 23.8223Z" fill="#003087"/>
<path d="M44.6283 15.4765C43.9495 15.0134 43.0638 14.7812 41.9706 14.7812H37.7656C37.4129 14.7812 37.2188 14.9475 37.1838 15.2798L35.4648 25.9866C35.4469 26.0917 35.4734 26.1879 35.5442 26.2753C35.6141 26.3629 35.7027 26.4065 35.8085 26.4065H37.977C38.1885 26.4065 38.3295 26.2929 38.4002 26.0654L38.8762 23.0214C38.8938 22.8815 38.9555 22.7678 39.0614 22.6802C39.1672 22.5928 39.2993 22.5356 39.4582 22.5094C39.6167 22.4834 39.7663 22.4703 39.9077 22.4703C40.0487 22.4703 40.216 22.4792 40.4101 22.4966C40.6039 22.514 40.7277 22.5226 40.7803 22.5226C42.2967 22.5226 43.4866 22.0987 44.3506 21.2498C45.2146 20.4015 45.6465 19.2251 45.6465 17.7202C45.6465 16.688 45.3069 15.9401 44.6283 15.4763V15.4765ZM41.9177 19.7935C41.5298 20.0559 40.9479 20.187 40.1723 20.187L39.3259 20.2133L39.7755 17.4052C39.8104 17.2131 39.9251 17.1166 40.1192 17.1166H40.5951C40.983 17.1166 41.2915 17.1342 41.5211 17.1691C41.7498 17.2042 41.9706 17.3134 42.1821 17.497C42.3938 17.6808 42.4995 17.9477 42.4995 18.2975C42.4995 19.0325 42.3053 19.5309 41.9177 19.7935Z" fill="#009CDE"/>
</svg>
