<svg width="64" height="43" viewBox="0 0 64 43" fill="none" xmlns="http://www.w3.org/2000/svg">
<path d="M0 5.375C0 2.40647 2.38781 0 5.33333 0H58.6667C61.6122 0 64 2.40647 64 5.375V37.625C64 40.5935 61.6122 43 58.6667 43H5.33333C2.38781 43 0 40.5935 0 37.625V5.375Z" fill="#D8E3F3"/>
<path d="M55.0799 13.4849H51.7271C50.7134 13.4849 49.9337 13.7992 49.4658 14.8208L43.0721 29.5156H47.5945C47.5945 29.5156 48.3742 27.551 48.5302 27.0795C48.998 27.0795 53.4425 27.0795 54.0662 27.0795C54.2222 27.6296 54.612 29.437 54.612 29.437H58.6666L55.0799 13.4849ZM49.7777 23.7791C50.1676 22.8361 51.4931 19.2999 51.4931 19.2999C51.4931 19.3785 51.883 18.3569 52.0389 17.8069L52.3508 19.2213C52.3508 19.2213 53.2085 23.0719 53.3645 23.8577H49.7777V23.7791Z" fill="#3362AB"/>
<path d="M43.384 24.2505C43.384 27.5509 40.421 29.7512 35.8206 29.7512C33.8713 29.7512 32 29.3583 30.9863 28.8868L31.6101 25.272L32.1559 25.5078C33.5594 26.1364 34.4951 26.3722 36.2105 26.3722C37.4581 26.3722 38.7836 25.9007 38.7836 24.8006C38.7836 24.0933 38.2378 23.6218 36.5224 22.836C34.885 22.0502 32.7017 20.7929 32.7017 18.514C32.7017 15.3707 35.7427 13.249 40.0312 13.249C41.6686 13.249 43.0721 13.5634 43.9298 13.9563L43.306 17.4139L42.9941 17.0995C42.2144 16.7852 41.2008 16.4709 39.7193 16.4709C38.0818 16.5495 37.3021 17.2567 37.3021 17.8854C37.3021 18.5926 38.2378 19.1427 39.7193 19.8499C42.2144 21.0286 43.384 22.3645 43.384 24.2505Z" fill="#3362AB"/>
<path d="M5.33331 13.642L5.41129 13.3276H12.1169C13.0526 13.3276 13.7544 13.642 13.9883 14.6635L15.4698 21.7359C13.9883 17.964 10.5575 14.8993 5.33331 13.642Z" fill="#F9B50B"/>
<path d="M24.9045 13.4848L18.1209 29.437H13.5205L9.62183 16.078C12.4288 17.8854 14.768 20.7144 15.6257 22.6789L16.0936 24.3291L20.3041 13.4062H24.9045V13.4848Z" fill="#3362AB"/>
<path d="M26.6979 13.4062H30.9864L28.2573 29.437H23.9688L26.6979 13.4062Z" fill="#3362AB"/>
</svg>
