<svg width="65" height="43" viewBox="0 0 65 43" fill="none" xmlns="http://www.w3.org/2000/svg">
<path d="M0 5.375C0 2.40647 2.42512 0 5.41667 0H59.5833C62.5749 0 65 2.40647 65 5.375V37.625C65 40.5935 62.5749 43 59.5833 43H5.41667C2.42512 43 0 40.5935 0 37.625V5.375Z" fill="#FDEACE"/>
<path d="M39.2763 8.77103L25.2944 8.81787L25.7237 34.2288L39.7055 34.182L39.2763 8.77103Z" fill="#FF5F00"/>
<path d="M26.2132 21.5752C26.1255 16.4068 28.457 11.8145 32.1098 8.83592C29.3517 6.68772 25.8942 5.39583 22.1464 5.40833C13.2679 5.43795 6.20744 12.6978 6.35913 21.6415C6.51081 30.5852 13.8167 37.7971 22.6952 37.7674C26.443 37.7549 29.8563 36.4401 32.5413 34.2738C28.7886 31.3648 26.3008 26.7437 26.2132 21.5752Z" fill="#EB001B"/>
<path d="M58.6408 21.3581C58.7925 30.3018 51.7321 37.5616 42.8535 37.5912C39.1058 37.6037 35.6482 36.3118 32.8901 34.1636C36.5875 31.1849 38.8744 26.5928 38.7868 21.4243C38.6991 16.2558 36.2121 11.6797 32.4587 8.72577C35.1436 6.55942 38.557 5.2446 42.3047 5.23209C51.1833 5.20247 58.4899 12.4593 58.6408 21.3581Z" fill="#F79E1B"/>
</svg>
