<svg width="64" height="43" viewBox="0 0 64 43" fill="none" xmlns="http://www.w3.org/2000/svg">
<path d="M0 5.375C0 2.40647 2.38781 0 5.33333 0H58.6667C61.6122 0 64 2.40647 64 5.375V37.625C64 40.5935 61.6122 43 58.6667 43H5.33333C2.38781 43 0 40.5935 0 37.625V5.375Z" fill="#CCEFFF"/>
<path d="M38.9985 34.1793H24.9998V8.82471H38.9985V34.1793Z" fill="#6C6BBD"/>
<path d="M25.8966 21.5C25.8966 16.3567 28.2861 11.7752 32.0071 8.82267C29.286 6.66365 25.8518 5.375 22.1196 5.375C13.284 5.375 6.12164 12.5943 6.12164 21.5C6.12164 30.4057 13.284 37.625 22.1196 37.625C25.8518 37.625 29.286 36.3364 32.0071 34.1773C28.2861 31.2248 25.8966 26.6433 25.8966 21.5Z" fill="#EB001B"/>
<path d="M57.8784 21.5C57.8784 30.4057 50.716 37.625 41.8804 37.625C38.1482 37.625 34.714 36.3364 31.9919 34.1773C35.7139 31.2248 38.1034 26.6433 38.1034 21.5C38.1034 16.3567 35.7139 11.7752 31.9919 8.82267C34.714 6.66365 38.1482 5.375 41.8804 5.375C50.716 5.375 57.8784 12.5943 57.8784 21.5Z" fill="#0099DF"/>
</svg>
