<svg width="65" height="43" viewBox="0 0 65 43" fill="none" xmlns="http://www.w3.org/2000/svg">
<path d="M0 5.375C0 2.40647 2.42512 0 5.41667 0H59.5833C62.5749 0 65 2.40647 65 5.375V37.625C65 40.5935 62.5749 43 59.5833 43H5.41667C2.42512 43 0 40.5935 0 37.625V5.375Z" fill="#D8DDF3"/>
<path d="M43.6795 13.4805C43.6795 13.6529 43.6794 13.8254 43.5056 13.9979C42.1153 20.8963 37.5966 23.1382 31.6875 23.1382H28.7329C28.0377 23.1382 27.3426 23.6556 27.3426 24.3454L25.7784 34.0032L25.4308 36.7626C25.4308 37.2799 25.7784 37.6249 26.126 37.6249H31.5137C32.2089 37.6249 32.7302 37.1075 32.7302 36.5901V36.2452L33.773 30.0366V29.6917C33.9468 29.0019 34.4682 28.6569 34.9896 28.6569H35.8586C41.0725 28.6569 45.0698 26.5874 46.1126 20.5513C46.634 17.9644 46.2864 15.8949 45.0698 14.5152C44.7222 14.1703 44.2008 13.8254 43.6795 13.4805Z" fill="#2199D6"/>
<path d="M42.289 12.9632C42.1152 12.9632 41.9415 12.7907 41.5939 12.7907C41.4201 12.7907 41.0725 12.6183 40.8987 12.6183C40.0297 12.4458 39.1607 12.4458 38.2917 12.4458H30.2971C30.1233 12.4458 29.9495 12.4458 29.7757 12.6183C29.4281 12.7907 29.0805 13.1356 29.0805 13.4806L27.3425 24.1731V24.518C27.5163 23.8282 28.0377 23.3108 28.7329 23.3108H31.6874C37.5965 23.3108 42.1152 20.8963 43.5056 14.1704C43.5056 13.9979 43.5056 13.8255 43.6794 13.653C43.3318 13.4806 42.9842 13.3081 42.6366 13.1356C42.4628 12.9632 42.289 12.9632 42.289 12.9632Z" fill="#252C5E"/>
<path d="M29.0805 13.4806C29.0805 13.1357 29.4281 12.7908 29.7757 12.6183C29.9495 12.6183 30.1233 12.4459 30.2971 12.4459H38.2917C39.1607 12.4459 40.2035 12.4459 40.8987 12.6183C41.0724 12.6183 41.4201 12.6183 41.5939 12.7908C41.7677 12.7908 41.9414 12.9632 42.289 12.9632C42.4628 12.9632 42.4628 12.9632 42.6366 13.1357C42.9842 13.3082 43.3318 13.4806 43.6794 13.6531C44.027 11.0662 43.6794 9.34157 42.289 7.78943C40.7249 6.06484 37.9441 5.375 34.4682 5.375H24.2142C23.519 5.375 22.8238 5.89237 22.8238 6.58221L18.6527 33.141C18.6527 33.6584 19.0003 34.1758 19.5217 34.1758H25.7783L27.3425 24.1731L29.0805 13.4806Z" fill="#263577"/>
</svg>
