<svg width="64" height="43" viewBox="0 0 64 43" fill="none" xmlns="http://www.w3.org/2000/svg">
<path d="M0 5.375C0 2.40647 2.38781 0 5.33333 0H58.6667C61.6122 0 64 2.40647 64 5.375V37.625C64 40.5935 61.6122 43 58.6667 43H5.33333C2.38781 43 0 40.5935 0 37.625V5.375Z" fill="#FAE3D1"/>
<path d="M46.1514 16.3179C46.003 15.4203 45.1866 14.8219 44.0733 14.8219C43.7022 14.8219 43.4053 14.8219 43.0342 14.8219C42.3662 14.7471 42.2178 14.9715 42.2178 15.4951C42.2178 18.1131 42.2178 20.6562 42.2178 23.2742C42.2178 24.6205 40.8819 26.0417 39.3233 26.3409C34.4248 27.4629 29.5264 28.5101 24.6279 29.632C24.1084 29.7816 23.5147 29.7816 22.9209 29.7816C22.6982 29.7816 22.3272 29.632 22.2529 29.4076C22.1787 29.2581 22.4014 28.9589 22.5498 28.8093C22.7725 28.6597 23.0693 28.5101 23.3662 28.3605C24.2568 28.0613 25.2217 27.7621 26.1123 27.4629C29.749 26.2661 33.3858 25.0693 37.0225 23.7977C38.6553 23.2742 39.5459 22.1522 39.5459 20.731C39.6201 16.2431 39.5459 11.6804 39.5459 7.19244C39.5459 6.44445 39.1748 5.84606 38.3584 5.54687C37.3936 5.17288 36.5029 5.47207 35.6865 5.84606C30.4912 8.31442 25.3701 10.7828 20.1748 13.2511C18.6904 13.9991 17.7998 15.0463 17.7998 16.5423C17.7998 20.8058 17.7998 25.0693 17.7998 29.3329C17.7998 29.5573 17.7998 29.7817 17.874 29.9312C18.3935 31.3524 19.7295 32.25 21.5107 32.25C25.1475 32.25 28.7842 32.25 32.4209 32.25C36.0576 32.25 39.6201 32.25 43.2569 32.25C44.0733 32.25 44.7412 32.1004 45.335 31.5768C46.0772 30.9784 46.0772 30.1556 46.0772 29.4076C46.0772 25.7277 46.1514 16.3179 46.1514 16.3179ZM31.0108 14.9715C31.3818 13.9991 32.1983 13.4007 33.3858 13.2511C34.2022 13.1763 34.8701 13.6251 35.0186 14.3731C35.167 15.4951 33.8311 16.8415 32.4209 16.8415C31.3076 16.8415 30.6397 16.0187 31.0108 14.9715Z" fill="#E47418"/>
</svg>
